<svg xmlns="http://www.w3.org/2000/svg" viewBox="0 0 24 24" fill="none">
  <path d="M12 4.2c-4.3 0-7.8 3.3-7.8 7.5 0 1.5.4 2.8 1.2 4L4.2 20l4.5-1.2c1.1.6 2.2.9 3.3.9 4.3 0 7.8-3.3 7.8-7.5s-3.5-8-7.8-8z" stroke="#ffffff" stroke-width="1.8" stroke-linejoin="round"/>
  <path d="M9.3 9.2c-.2-.4-.5-.4-.7-.4h-.5c-.2 0-.4.1-.5.3-.5.6-.9 1.4-.9 2.2 0 .5.2 1 .4 1.5.6 1.2 1.6 2.5 3.7 3.4 1 .4 1.7.5 2.2.4.7-.1 1.4-.6 1.6-1.2l.2-.7c.1-.2 0-.4-.2-.5l-1.5-.7c-.2-.1-.4 0-.5.1l-.6.7c-.2.2-.4.2-.6.1-.6-.2-1.9-1.1-2.4-2-.1-.2-.1-.4 0-.6l.5-.6c.1-.1.1-.3.1-.5l-.3-.7z" fill="#ffffff"/>
</svg>
