<svg xmlns="http://www.w3.org/2000/svg" viewBox="0 0 64 64" fill="none">
  <rect x="8" y="8" width="48" height="48" rx="6" fill="#F7DF1E"/>
  <path d="M37.5 42c1.2 1.9 2.8 3.2 5.5 3.2 2.3 0 3.8-1.1 3.8-2.7 0-1.9-1.5-2.6-4-3.6l-1.4-.6c-4-1.7-6.7-3.7-6.7-8.1 0-4 3.1-7 7.8-7 3.4 0 5.9 1.2 7.6 4.3l-4.2 2.7c-.9-1.7-1.9-2.4-3.4-2.4s-2.5 1-2.5 2.4c0 1.7 1 2.4 3.4 3.4l1.4.6c4.8 2 7.6 4 7.6 8.6 0 4.9-3.9 7.6-9.1 7.6-5.1 0-8.4-2.4-10-5.6l4.2-2.4zM20.3 42.5c.8 1.4 1.5 2.6 3.2 2.6 1.6 0 2.7-.6 2.7-3.2V23.5h5.2V42c0 5.6-3.3 8.2-8.1 8.2-4.3 0-6.8-2.2-8-4.9l4-2.8z" fill="#111"/>
</svg>
