<svg xmlns="http://www.w3.org/2000/svg" viewBox="0 0 64 64" fill="none">
  <ellipse cx="32" cy="16" rx="17" ry="7" fill="#7B8AA0"/>
  <path d="M15 16v24c0 3.9 7.6 7 17 7s17-3.1 17-7V16" fill="#5F6F84"/>
  <ellipse cx="32" cy="40" rx="17" ry="7" fill="#7B8AA0"/>
  <path d="M21.2 28h4.2c1.3 0 2 .6 2 1.5 0 1-.6 1.4-1.9 1.8l-1 .2c-2 .5-3.2 1.5-3.2 3.5 0 2.1 1.7 3.5 4.2 3.5h3.9v-2.7h-3.4c-1.1 0-1.8-.4-1.8-1.2s.6-1.1 1.8-1.4l1-.2c2.1-.5 3.3-1.6 3.3-3.8 0-2.1-1.6-3.4-4.2-3.4h-3.9V28zm12.1 0h-2.8v10.4h2.8V28zm3 0v2.8h2.6v7.6h2.8v-7.6h2.6V28h-8z" fill="#fff"/>
</svg>
